<svg width="52" height="52" viewBox="0 0 52 52" fill="none" xmlns="http://www.w3.org/2000/svg">
<path d="M32.0194 41.2894C31.7958 42.8371 31.022 44.2524 29.8398 45.276C28.6577 46.2996 27.1463 46.863 25.5825 46.863C24.0188 46.863 22.5074 46.2996 21.3253 45.276C20.1431 44.2524 19.3693 42.8371 19.1457 41.2894H32.0194ZM25.5825 6C29.6876 6.00008 33.6312 7.59911 36.5771 10.458C39.523 13.3169 41.2395 17.2108 41.3627 21.314V21.7876H41.3701V29.4241L43.9961 36.1916C44.0667 36.3754 44.115 36.5649 44.1391 36.7599L44.1577 37.0514C44.158 37.6403 43.9397 38.2083 43.5451 38.6454C43.1505 39.0825 42.6078 39.3576 42.022 39.4174L41.7805 39.4286H9.37897C9.01277 39.4289 8.65147 39.3445 8.32323 39.1822C7.99499 39.0198 7.7087 38.7838 7.48669 38.4926C7.26468 38.2014 7.11295 37.8628 7.04334 37.5033C6.97373 37.1438 6.98813 36.773 7.0854 36.42L7.1634 36.1897L9.79311 29.4223V21.7894C9.79287 19.7159 10.2011 17.6626 10.9945 15.7468C11.7879 13.831 12.951 12.0903 14.4172 10.6241C15.8834 9.15784 17.6241 7.99481 19.5399 7.2014C21.4557 6.408 23.509 5.99976 25.5825 6Z" fill="white"/>
</svg>
