<svg width="30" height="30" viewBox="0 0 30 30" fill="none" xmlns="http://www.w3.org/2000/svg">
<path d="M1.875 5.3125C1.875 4.105 2.855 3.125 4.0625 3.125H25.9375C27.145 3.125 28.125 4.105 28.125 5.3125V20.9375C28.125 21.5177 27.8945 22.0741 27.4843 22.4843C27.0741 22.8945 26.5177 23.125 25.9375 23.125H13.825L9.35875 27.5913C9.10381 27.8452 8.7794 28.018 8.4264 28.0879C8.0734 28.1578 7.70761 28.1216 7.37514 27.9839C7.04268 27.8462 6.75841 27.6132 6.55818 27.3142C6.35795 27.0152 6.25072 26.6636 6.25 26.3038V23.125H4.0625C3.48234 23.125 2.92594 22.8945 2.5157 22.4843C2.10547 22.0741 1.875 21.5177 1.875 20.9375V5.3125ZM4.0625 5C3.97962 5 3.90013 5.03292 3.84153 5.09153C3.78292 5.15013 3.75 5.22962 3.75 5.3125V20.9375C3.75 21.11 3.89 21.25 4.0625 21.25H7.1875C7.43614 21.25 7.6746 21.3488 7.85041 21.5246C8.02623 21.7004 8.125 21.9389 8.125 22.1875V26.175L12.775 21.525C12.8619 21.4379 12.9652 21.3687 13.0789 21.3215C13.1925 21.2744 13.3144 21.25 13.4375 21.25H25.9375C26.0204 21.25 26.0999 21.2171 26.1585 21.1585C26.2171 21.0999 26.25 21.0204 26.25 20.9375V5.3125C26.25 5.22962 26.2171 5.15013 26.1585 5.09153C26.0999 5.03292 26.0204 5 25.9375 5H4.0625Z" fill="white"/>
</svg>
