<svg width="70" height="60" viewBox="0 0 70 60" fill="none" xmlns="http://www.w3.org/2000/svg">
<g clip-path="url(#clip0_55_432)">
<path d="M69.9757 29.9414C69.9757 32.0508 68.1528 33.7031 66.0868 33.7031H62.1979L62.283 52.4766C62.3073 56.6367 58.8194 60.0117 54.5052 60.0117H39.6667L35 52.5L44.8194 44.6133C45.7674 43.8516 45.7431 42.4336 44.7708 41.6953L30.4549 30.8438C28.6806 29.4961 26.3472 31.6641 27.684 33.4219L35 43.125L24.6094 51.4688C23.8681 52.0547 23.6979 53.0859 24.184 53.8711L28 60H15.5677C11.2778 60 7.78993 56.6367 7.78993 52.5V33.7031H3.88889C1.70139 33.7031 0 32.0625 0 29.9414C0 28.8867 0.364583 27.9492 1.21528 27.1289L32.375 0.9375C33.2257 0.117188 34.1979 0 35.0486 0C35.8993 0 36.8715 0.234375 37.6007 0.820313L50.5556 11.8008V7.5C50.5556 5.42578 52.2934 3.75 54.4444 3.75H58.3333C60.4844 3.75 62.2222 5.42578 62.2222 7.5V21.6797L68.6389 27.1172C69.6111 27.9375 70.0972 28.875 69.9757 29.9297V29.9414Z" fill="white"/>
</g>
<defs>
<clipPath id="clip0_55_432">
<rect width="70" height="60" fill="white"/>
</clipPath>
</defs>
</svg>
