<svg width="141" height="36" viewBox="0 0 141 36" fill="none" xmlns="http://www.w3.org/2000/svg">
<path d="M0.190341 35V0.0909081H7.57102V14.4943H22.554V0.0909081H29.9176V35H22.554V20.5795H7.57102V35H0.190341ZM47.696 35.5114C45.0483 35.5114 42.7585 34.9489 40.8267 33.8239C38.9063 32.6875 37.4233 31.108 36.3778 29.0852C35.3324 27.0511 34.8097 24.6932 34.8097 22.0114C34.8097 19.3068 35.3324 16.9432 36.3778 14.9205C37.4233 12.8864 38.9063 11.3068 40.8267 10.1818C42.7585 9.04545 45.0483 8.47727 47.696 8.47727C50.3438 8.47727 52.6278 9.04545 54.5483 10.1818C56.4801 11.3068 57.9688 12.8864 59.0142 14.9205C60.0597 16.9432 60.5824 19.3068 60.5824 22.0114C60.5824 24.6932 60.0597 27.0511 59.0142 29.0852C57.9688 31.108 56.4801 32.6875 54.5483 33.8239C52.6278 34.9489 50.3438 35.5114 47.696 35.5114ZM47.7301 29.8864C48.9347 29.8864 49.9403 29.5455 50.7472 28.8636C51.554 28.1705 52.1619 27.2273 52.571 26.0341C52.9915 24.8409 53.2017 23.483 53.2017 21.9602C53.2017 20.4375 52.9915 19.0795 52.571 17.8864C52.1619 16.6932 51.554 15.75 50.7472 15.0568C49.9403 14.3636 48.9347 14.017 47.7301 14.017C46.5142 14.017 45.4915 14.3636 44.6619 15.0568C43.8438 15.75 43.2244 16.6932 42.804 17.8864C42.3949 19.0795 42.1903 20.4375 42.1903 21.9602C42.1903 23.483 42.3949 24.8409 42.804 26.0341C43.2244 27.2273 43.8438 28.1705 44.6619 28.8636C45.4915 29.5455 46.5142 29.8864 47.7301 29.8864ZM77.1335 35.5114C74.4858 35.5114 72.196 34.9489 70.2642 33.8239C68.3438 32.6875 66.8608 31.108 65.8153 29.0852C64.7699 27.0511 64.2472 24.6932 64.2472 22.0114C64.2472 19.3068 64.7699 16.9432 65.8153 14.9205C66.8608 12.8864 68.3438 11.3068 70.2642 10.1818C72.196 9.04545 74.4858 8.47727 77.1335 8.47727C79.7812 8.47727 82.0653 9.04545 83.9858 10.1818C85.9176 11.3068 87.4062 12.8864 88.4517 14.9205C89.4972 16.9432 90.0199 19.3068 90.0199 22.0114C90.0199 24.6932 89.4972 27.0511 88.4517 29.0852C87.4062 31.108 85.9176 32.6875 83.9858 33.8239C82.0653 34.9489 79.7812 35.5114 77.1335 35.5114ZM77.1676 29.8864C78.3722 29.8864 79.3778 29.5455 80.1847 28.8636C80.9915 28.1705 81.5994 27.2273 82.0085 26.0341C82.429 24.8409 82.6392 23.483 82.6392 21.9602C82.6392 20.4375 82.429 19.0795 82.0085 17.8864C81.5994 16.6932 80.9915 15.75 80.1847 15.0568C79.3778 14.3636 78.3722 14.017 77.1676 14.017C75.9517 14.017 74.929 14.3636 74.0994 15.0568C73.2813 15.75 72.6619 16.6932 72.2415 17.8864C71.8324 19.0795 71.6278 20.4375 71.6278 21.9602C71.6278 23.483 71.8324 24.8409 72.2415 26.0341C72.6619 27.2273 73.2813 28.1705 74.0994 28.8636C74.929 29.5455 75.9517 29.8864 77.1676 29.8864ZM104.389 35.4261C102.401 35.4261 100.599 34.9148 98.9858 33.892C97.3835 32.858 96.1108 31.3409 95.1676 29.3409C94.2358 27.3295 93.7699 24.8636 93.7699 21.9432C93.7699 18.9432 94.2528 16.4489 95.2188 14.4602C96.1847 12.4602 97.4688 10.9659 99.071 9.97727C100.685 8.97727 102.452 8.47727 104.372 8.47727C105.838 8.47727 107.06 8.72727 108.037 9.22727C109.026 9.71591 109.821 10.3295 110.423 11.0682C111.037 11.7955 111.503 12.5114 111.821 13.2159H112.043V0.0909081H119.287V35H112.128V30.8068H111.821C111.48 31.5341 110.997 32.2557 110.372 32.9716C109.759 33.6761 108.957 34.2614 107.969 34.7273C106.991 35.1932 105.798 35.4261 104.389 35.4261ZM106.69 29.6477C107.861 29.6477 108.849 29.3295 109.656 28.6932C110.474 28.0455 111.099 27.142 111.531 25.983C111.974 24.8239 112.196 23.4659 112.196 21.9091C112.196 20.3523 111.98 19 111.548 17.8523C111.116 16.7045 110.491 15.8182 109.673 15.1932C108.855 14.5682 107.861 14.2557 106.69 14.2557C105.497 14.2557 104.491 14.5795 103.673 15.2273C102.855 15.875 102.236 16.7727 101.815 17.9205C101.395 19.0682 101.185 20.3977 101.185 21.9091C101.185 23.4318 101.395 24.7784 101.815 25.9489C102.247 27.108 102.866 28.017 103.673 28.6761C104.491 29.3239 105.497 29.6477 106.69 29.6477ZM140.376 0.0909081V35H132.996V7.09659H132.791L124.797 12.108V5.5625L133.439 0.0909081H140.376Z" fill="white"/>
</svg>
