<svg width="230" height="65" viewBox="0 0 230 65" fill="none" xmlns="http://www.w3.org/2000/svg">
<rect width="230" height="65" rx="15" fill="#1C1C1C"/>
<path d="M73.6946 45V21.7273H78.6151V40.9432H88.5923V45H73.6946ZM99.6463 45.3409C97.8812 45.3409 96.3546 44.9659 95.0668 44.2159C93.7865 43.4583 92.7978 42.4053 92.1009 41.0568C91.4039 39.7008 91.0554 38.1288 91.0554 36.3409C91.0554 34.5379 91.4039 32.9621 92.1009 31.6136C92.7978 30.2576 93.7865 29.2045 95.0668 28.4545C96.3546 27.697 97.8812 27.3182 99.6463 27.3182C101.411 27.3182 102.934 27.697 104.214 28.4545C105.502 29.2045 106.495 30.2576 107.192 31.6136C107.889 32.9621 108.237 34.5379 108.237 36.3409C108.237 38.1288 107.889 39.7008 107.192 41.0568C106.495 42.4053 105.502 43.4583 104.214 44.2159C102.934 44.9659 101.411 45.3409 99.6463 45.3409ZM99.669 41.5909C100.472 41.5909 101.143 41.3636 101.68 40.9091C102.218 40.447 102.624 39.8182 102.896 39.0227C103.177 38.2273 103.317 37.322 103.317 36.3068C103.317 35.2917 103.177 34.3864 102.896 33.5909C102.624 32.7955 102.218 32.1667 101.68 31.7045C101.143 31.2424 100.472 31.0114 99.669 31.0114C98.8584 31.0114 98.1766 31.2424 97.6236 31.7045C97.0781 32.1667 96.6652 32.7955 96.3849 33.5909C96.1122 34.3864 95.9759 35.2917 95.9759 36.3068C95.9759 37.322 96.1122 38.2273 96.3849 39.0227C96.6652 39.8182 97.0781 40.447 97.6236 40.9091C98.1766 41.3636 98.8584 41.5909 99.669 41.5909ZM119.249 51.9091C117.68 51.9091 116.336 51.6932 115.214 51.2614C114.101 50.8371 113.214 50.2576 112.555 49.5227C111.896 48.7879 111.468 47.9621 111.271 47.0455L115.749 46.4432C115.885 46.7917 116.101 47.1174 116.396 47.4205C116.692 47.7235 117.082 47.9659 117.567 48.1477C118.059 48.3371 118.658 48.4318 119.362 48.4318C120.415 48.4318 121.283 48.1742 121.964 47.6591C122.654 47.1515 122.999 46.2992 122.999 45.1023V41.9091H122.794C122.582 42.3939 122.264 42.8523 121.839 43.2841C121.415 43.7159 120.87 44.0682 120.203 44.3409C119.536 44.6136 118.741 44.75 117.817 44.75C116.506 44.75 115.313 44.447 114.237 43.8409C113.169 43.2273 112.317 42.2917 111.68 41.0341C111.052 39.7689 110.737 38.1705 110.737 36.2386C110.737 34.2614 111.059 32.6098 111.703 31.2841C112.347 29.9583 113.203 28.9659 114.271 28.3068C115.347 27.6477 116.525 27.3182 117.805 27.3182C118.783 27.3182 119.601 27.4848 120.26 27.8182C120.919 28.1439 121.449 28.553 121.851 29.0455C122.26 29.5303 122.574 30.0076 122.794 30.4773H122.976V27.5455H127.783V45.1705C127.783 46.6553 127.419 47.8977 126.692 48.8977C125.964 49.8977 124.957 50.6477 123.669 51.1477C122.389 51.6553 120.915 51.9091 119.249 51.9091ZM119.351 41.1136C120.131 41.1136 120.79 40.9205 121.328 40.5341C121.874 40.1402 122.29 39.5795 122.578 38.8523C122.874 38.1174 123.021 37.2386 123.021 36.2159C123.021 35.1932 122.877 34.3068 122.589 33.5568C122.302 32.7992 121.885 32.2121 121.339 31.7955C120.794 31.3788 120.131 31.1705 119.351 31.1705C118.555 31.1705 117.885 31.3864 117.339 31.8182C116.794 32.2424 116.381 32.8333 116.101 33.5909C115.821 34.3485 115.68 35.2235 115.68 36.2159C115.68 37.2235 115.821 38.0947 116.101 38.8295C116.389 39.5568 116.802 40.1212 117.339 40.5227C117.885 40.9167 118.555 41.1136 119.351 41.1136ZM131.635 45V27.5455H136.476V45H131.635ZM134.067 25.2955C133.347 25.2955 132.73 25.0568 132.214 24.5795C131.707 24.0947 131.453 23.5152 131.453 22.8409C131.453 22.1742 131.707 21.6023 132.214 21.125C132.73 20.6402 133.347 20.3977 134.067 20.3977C134.786 20.3977 135.4 20.6402 135.908 21.125C136.423 21.6023 136.68 22.1742 136.68 22.8409C136.68 23.5152 136.423 24.0947 135.908 24.5795C135.4 25.0568 134.786 25.2955 134.067 25.2955ZM145.195 34.9091V45H140.354V27.5455H144.967V30.625H145.172C145.558 29.6098 146.206 28.8068 147.115 28.2159C148.024 27.6174 149.126 27.3182 150.422 27.3182C151.634 27.3182 152.691 27.5833 153.592 28.1136C154.494 28.6439 155.195 29.4015 155.695 30.3864C156.195 31.3636 156.445 32.5303 156.445 33.8864V45H151.604V34.75C151.611 33.6818 151.339 32.8485 150.786 32.25C150.232 31.6439 149.471 31.3409 148.501 31.3409C147.85 31.3409 147.274 31.4811 146.774 31.7614C146.282 32.0417 145.895 32.4508 145.615 32.9886C145.342 33.5189 145.202 34.1591 145.195 34.9091Z" fill="white"/>
</svg>
