<svg width="50" height="50" viewBox="0 0 50 50" fill="none" xmlns="http://www.w3.org/2000/svg">
<path d="M45.3938 3.08341L46.623 4.31257C48.3167 6.00841 48.0605 9.01466 46.0459 11.0272L20.698 36.3751L12.4855 39.3792C11.4542 39.7584 10.45 39.2667 10.2459 38.2855C10.1769 37.9295 10.2094 37.5614 10.3396 37.223L13.4021 28.9397L38.6792 3.66049C40.6938 1.64799 43.7 1.38757 45.3938 3.08341ZM19.5917 5.60424C19.8653 5.60424 20.1362 5.65813 20.389 5.76282C20.6417 5.86752 20.8714 6.02098 21.0649 6.21443C21.2583 6.40789 21.4118 6.63755 21.5165 6.89032C21.6212 7.14308 21.675 7.41399 21.675 7.68757C21.675 7.96116 21.6212 8.23207 21.5165 8.48483C21.4118 8.73759 21.2583 8.96726 21.0649 9.16071C20.8714 9.35417 20.6417 9.50762 20.389 9.61232C20.1362 9.71702 19.8653 9.77091 19.5917 9.77091H11.2584C10.1533 9.77091 9.0935 10.2099 8.3121 10.9913C7.5307 11.7727 7.09172 12.8325 7.09172 13.9376V38.9376C7.09172 40.0426 7.5307 41.1024 8.3121 41.8839C9.0935 42.6652 10.1533 43.1042 11.2584 43.1042H36.2584C37.3634 43.1042 38.4233 42.6652 39.2047 41.8839C39.9861 41.1024 40.425 40.0426 40.425 38.9376V30.6042C40.425 30.0517 40.6445 29.5218 41.0352 29.1311C41.4259 28.7404 41.9558 28.5209 42.5084 28.5209C43.0609 28.5209 43.5908 28.7404 43.9815 29.1311C44.3722 29.5218 44.5917 30.0517 44.5917 30.6042V38.9376C44.5917 41.1477 43.7137 43.2673 42.1509 44.8301C40.5881 46.3929 38.4685 47.2709 36.2584 47.2709H11.2584C9.04824 47.2709 6.92863 46.3929 5.36583 44.8301C3.80302 43.2673 2.92505 41.1477 2.92505 38.9376V13.9376C2.92505 11.7274 3.80302 9.60782 5.36583 8.04502C6.92863 6.48221 9.04824 5.60424 11.2584 5.60424H19.5917Z" fill="white"/>
</svg>
