<svg width="50" height="40" viewBox="0 0 50 40" fill="none" xmlns="http://www.w3.org/2000/svg">
<path d="M10.4167 16.667C8.125 16.667 6.25 18.167 6.25 20.0003C6.25 21.8337 8.125 23.3337 10.4167 23.3337C12.7083 23.3337 14.5833 21.8337 14.5833 20.0003C14.5833 18.167 12.7083 16.667 10.4167 16.667ZM39.5833 16.667C37.2917 16.667 35.4167 18.167 35.4167 20.0003C35.4167 21.8337 37.2917 23.3337 39.5833 23.3337C41.875 23.3337 43.75 21.8337 43.75 20.0003C43.75 18.167 41.875 16.667 39.5833 16.667ZM25 16.667C22.7083 16.667 20.8333 18.167 20.8333 20.0003C20.8333 21.8337 22.7083 23.3337 25 23.3337C27.2917 23.3337 29.1667 21.8337 29.1667 20.0003C29.1667 18.167 27.2917 16.667 25 16.667Z" fill="white"/>
</svg>
