<svg width="140" height="62" viewBox="0 0 140 62" fill="none" xmlns="http://www.w3.org/2000/svg">
<rect width="140" height="62" rx="15" fill="#A3B14F"/>
<path d="M49.6321 19.7273H54.5526V34.8409C54.5526 36.5379 54.1473 38.0227 53.3366 39.2955C52.5336 40.5682 51.4086 41.5606 49.9616 42.2727C48.5147 42.9773 46.8291 43.3295 44.9048 43.3295C42.973 43.3295 41.2836 42.9773 39.8366 42.2727C38.3897 41.5606 37.2647 40.5682 36.4616 39.2955C35.6586 38.0227 35.2571 36.5379 35.2571 34.8409V19.7273H40.1776V34.4205C40.1776 35.3068 40.3707 36.0947 40.7571 36.7841C41.151 37.4735 41.7041 38.0152 42.4162 38.4091C43.1283 38.803 43.9579 39 44.9048 39C45.8594 39 46.6889 38.803 47.3935 38.4091C48.1056 38.0152 48.6548 37.4735 49.0412 36.7841C49.4351 36.0947 49.6321 35.3068 49.6321 34.4205V19.7273ZM73.0327 30.5227L68.6009 30.7955C68.5251 30.4167 68.3622 30.0758 68.1122 29.7727C67.8622 29.4621 67.5327 29.2159 67.1236 29.0341C66.7221 28.8447 66.241 28.75 65.6804 28.75C64.9304 28.75 64.2978 28.9091 63.7827 29.2273C63.2675 29.5379 63.0099 29.9545 63.0099 30.4773C63.0099 30.8939 63.1766 31.2462 63.5099 31.5341C63.8433 31.822 64.4152 32.053 65.2259 32.2273L68.3849 32.8636C70.0819 33.2121 71.3471 33.7727 72.1804 34.5455C73.0137 35.3182 73.4304 36.3333 73.4304 37.5909C73.4304 38.7348 73.0933 39.7386 72.419 40.6023C71.7524 41.4659 70.8357 42.1402 69.669 42.625C68.5099 43.1023 67.1728 43.3409 65.6577 43.3409C63.3471 43.3409 61.5062 42.8598 60.1349 41.8977C58.7713 40.928 57.9721 39.6098 57.7372 37.9432L62.4986 37.6932C62.6425 38.3977 62.991 38.9356 63.544 39.3068C64.0971 39.6705 64.8054 39.8523 65.669 39.8523C66.5175 39.8523 67.1993 39.6894 67.7145 39.3636C68.2372 39.0303 68.5024 38.6023 68.5099 38.0795C68.5024 37.6402 68.3168 37.2803 67.9531 37C67.5895 36.7121 67.0289 36.4924 66.2713 36.3409L63.2486 35.7386C61.544 35.3977 60.2751 34.8068 59.4418 33.9659C58.616 33.125 58.2031 32.053 58.2031 30.75C58.2031 29.6288 58.5062 28.6629 59.1122 27.8523C59.7259 27.0417 60.5857 26.4167 61.6918 25.9773C62.8054 25.5379 64.1084 25.3182 65.6009 25.3182C67.8054 25.3182 69.5402 25.7841 70.8054 26.7159C72.0781 27.6477 72.8205 28.9167 73.0327 30.5227ZM84.4332 43.3409C82.6378 43.3409 81.0923 42.9773 79.7969 42.25C78.509 41.5152 77.5166 40.4773 76.8196 39.1364C76.1226 37.7879 75.7741 36.1932 75.7741 34.3523C75.7741 32.5568 76.1226 30.9811 76.8196 29.625C77.5166 28.2689 78.4976 27.2121 79.7628 26.4545C81.0355 25.697 82.5279 25.3182 84.2401 25.3182C85.3916 25.3182 86.4635 25.5038 87.456 25.875C88.456 26.2386 89.3272 26.7879 90.0696 27.5227C90.8196 28.2576 91.4029 29.1818 91.8196 30.2955C92.2363 31.4015 92.4446 32.697 92.4446 34.1818V35.5114H77.706V32.5114H87.8878C87.8878 31.8144 87.7363 31.197 87.4332 30.6591C87.1302 30.1212 86.7098 29.7008 86.1719 29.3977C85.6416 29.0871 85.0241 28.9318 84.3196 28.9318C83.5848 28.9318 82.9332 29.1023 82.3651 29.4432C81.8045 29.7765 81.3651 30.2273 81.0469 30.7955C80.7287 31.3561 80.5658 31.9811 80.5582 32.6705V35.5227C80.5582 36.3864 80.7173 37.1326 81.0355 37.7614C81.3613 38.3902 81.8196 38.875 82.4105 39.2159C83.0014 39.5568 83.7022 39.7273 84.5128 39.7273C85.0507 39.7273 85.5431 39.6515 85.9901 39.5C86.437 39.3485 86.8196 39.1212 87.1378 38.8182C87.456 38.5152 87.6984 38.1439 87.8651 37.7045L92.3423 38C92.1151 39.0758 91.6491 40.0152 90.9446 40.8182C90.2476 41.6136 89.3461 42.2348 88.2401 42.6818C87.1416 43.1212 85.8726 43.3409 84.4332 43.3409ZM95.6037 43V25.5455H100.297V28.5909H100.479C100.797 27.5076 101.331 26.6894 102.081 26.1364C102.831 25.5758 103.695 25.2955 104.672 25.2955C104.914 25.2955 105.176 25.3106 105.456 25.3409C105.736 25.3712 105.982 25.4129 106.195 25.4659V29.7614C105.967 29.6932 105.653 29.6326 105.251 29.5795C104.85 29.5265 104.482 29.5 104.149 29.5C103.437 29.5 102.801 29.6553 102.24 29.9659C101.687 30.2689 101.248 30.6932 100.922 31.2386C100.604 31.7841 100.445 32.4129 100.445 33.125V43H95.6037Z" fill="white"/>
</svg>
